<?xml version="1.0" encoding="UTF-8" standalone="no"?>
<!-- Created with Inkscape (http://www.inkscape.org/) -->

<svg
   xmlns:dc="http://purl.org/dc/elements/1.1/"
   xmlns:cc="http://creativecommons.org/ns#"
   xmlns:rdf="http://www.w3.org/1999/02/22-rdf-syntax-ns#"
   xmlns:svg="http://www.w3.org/2000/svg"
   xmlns="http://www.w3.org/2000/svg"
   version="1.1"
   width="200"
   height="200"
   viewBox="0 0 200 200"
   id="Layer_1"
   xml:space="preserve"><metadata
     id="metadata21"><rdf:RDF><cc:Work
         rdf:about=""><dc:format>image/svg+xml</dc:format><dc:type
           rdf:resource="http://purl.org/dc/dcmitype/StillImage" /><dc:title></dc:title></cc:Work></rdf:RDF></metadata><defs
     id="defs19" /><path
     d="M 100,0 C 44.771525,0 0,44.771525 0,100 0,155.22847 44.771525,200 100,200 155.22847,200 200,155.22847 200,100 200,44.771525 155.22847,0 100,0 z m -15.28125,50.03125 3.40625,0 1.78125,0 5.21875,0 5,0 c 19.765,0.042 36.9985,34.2965 43.5625,58.6875 l 10.59375,0 -17.625,41.25 -33.125,-41.25 14.90625,0 c -0.002,-0.01 0.002,-0.0212 0,-0.0312 l 1.25,0.0312 c 0,0 -0.79175,-5.1525 -2.59375,-12.4375 -1.84,-7.271 -4.6635,-16.93575 -9.0625,-25.96875 -1.069,-2.27 -2.33675,-4.46775 -3.59375,-6.59375 -1.372,-2.059 -2.69925,-4.08475 -4.28125,-5.84375 -1.495,-1.877 -3.1945,-3.30625 -4.9375,-4.65625 -0.94399,-0.626709 -1.8717,-1.201851 -2.8125,-1.6875 -0.274308,0.10573 -0.539484,0.196363 -0.8125,0.3125 -1.57,0.669 -3.13425,1.53225 -4.65625,2.53125 -0.099,0.065 -0.18225,0.1215 -0.28125,0.1875 -0.741,0.498 -1.49075,1.02375 -2.21875,1.59375 -0.096,0.075 -0.18525,0.173 -0.28125,0.25 -1.491,1.19 -2.946,2.50275 -4.375,3.96875 -0.094,0.097 -0.18725,0.2145 -0.28125,0.3125 -0.691,0.72 -1.3875,1.43975 -2.0625,2.21875 -0.095,0.109 -0.18725,0.23375 -0.28125,0.34375 -1.377,1.611 -2.72825,3.32725 -4.03125,5.15625 -0.094,0.132 -0.18825,0.27325 -0.28125,0.40625 -0.626,0.891 -1.23675,1.815 -1.84375,2.75 -0.094,0.145 -0.18725,0.2905 -0.28125,0.4375 -1.24,1.932 -2.44075,3.94025 -3.59375,6.03125 -0.092,0.168 -0.18925,0.331 -0.28125,0.5 -0.55,1.01 -1.096,2.05275 -1.625,3.09375 -0.093,0.185 -0.18825,0.3765 -0.28125,0.5625 -1.08,2.153 -2.11075,4.33775 -3.09375,6.59375 -0.088,0.202 -0.163,0.422 -0.25,0.625 -0.467,1.087 -0.932,2.17725 -1.375,3.28125 -0.085,0.211 -0.167,0.414 -0.25,0.625 -0.007,0.017 -0.02425,0.0455 -0.03125,0.0625 -0.814,2.058 -2.788,3.40625 -5,3.40625 l -4,0 c -1.756,0 -3.37775,-0.87675 -4.34375,-2.34375 -0.966,-1.467 -1.1305,-3.3235 -0.4375,-4.9375 9.293,-21.655 23.2715,-39.50175 38.5625,-39.46875 z"
     id="circle5"
     style="fill:#1d1d1b" /><path
     d="m -0.87288,-0.8728825 0,201.7457625 201.74576,0 0,-201.7457625 -201.74576,0 z M 100,10.058037 c 49.43143,0 89.50352,40.269412 89.50352,89.941963 0,49.67255 -40.07209,89.92684 -89.50352,89.92684 -49.43143,0 -89.50352,-40.25429 -89.50352,-89.92684 0,-49.672551 40.07209,-89.941963 89.50352,-89.941963 z"
     id="rect3000"
     style="opacity:0.8;fill:#1d1d1b;fill-opacity:1;stroke:none" /></svg>