<?xml version="1.0" encoding="UTF-8" standalone="no"?>
<!-- Generator: Adobe Illustrator 17.0.2, SVG Export Plug-In . SVG Version: 6.00 Build 0)  -->

<svg
   xmlns:dc="http://purl.org/dc/elements/1.1/"
   xmlns:cc="http://creativecommons.org/ns#"
   xmlns:rdf="http://www.w3.org/1999/02/22-rdf-syntax-ns#"
   xmlns:svg="http://www.w3.org/2000/svg"
   xmlns="http://www.w3.org/2000/svg"
   xmlns:sodipodi="http://sodipodi.sourceforge.net/DTD/sodipodi-0.dtd"
   xmlns:inkscape="http://www.inkscape.org/namespaces/inkscape"
   version="1.1"
   id="Layer_1"
   x="0px"
   y="0px"
   width="200px"
   height="200px"
   viewBox="0 0 200 200"
   enable-background="new 0 0 200 200"
   xml:space="preserve"
   inkscape:version="0.48.4 r9939"
   sodipodi:docname="error.svg"><metadata
     id="metadata15"><rdf:RDF><cc:Work
         rdf:about=""><dc:format>image/svg+xml</dc:format><dc:type
           rdf:resource="http://purl.org/dc/dcmitype/StillImage" /></cc:Work></rdf:RDF></metadata><defs
     id="defs13" /><sodipodi:namedview
     pagecolor="#ffffff"
     bordercolor="#666666"
     borderopacity="1"
     objecttolerance="10"
     gridtolerance="10"
     guidetolerance="10"
     inkscape:pageopacity="0"
     inkscape:pageshadow="2"
     inkscape:window-width="1920"
     inkscape:window-height="1056"
     id="namedview11"
     showgrid="false"
     inkscape:zoom="2.36"
     inkscape:cx="144.94442"
     inkscape:cy="34.924196"
     inkscape:window-x="1920"
     inkscape:window-y="24"
     inkscape:window-maximized="1"
     inkscape:current-layer="g3" /><g
     id="g3"><circle
       fill="#1D1D1B"
       cx="100"
       cy="100"
       r="100"
       id="circle5" /><path
       id="path2993"
       d="m 119.79453,139.55134 c 0,10.931 -8.84528,19.77568 -19.77567,19.77568 -10.921129,0 -19.775686,-8.84529 -19.775686,-19.77568 0,-10.93039 8.854557,-19.77567 19.775686,-19.77567 10.931,0 19.77567,8.84528 19.77567,19.77567 z m -65.284452,-38.06447 15.159908,12.70774 c 15.121591,-18.057051 45.624964,-18.057051 60.727394,0.0192 l 15.17969,-12.66882 c -11.33641,-13.557458 -27.93499,-21.320644 -45.5576,-21.320644 -17.613333,0 -34.202032,7.744027 -45.509392,21.262544 z M 26.729583,73.156375 41.387684,86.443149 C 56.35416,69.911929 77.723011,60.44865 100.01886,60.44865 c 22.28657,0 43.64553,9.463279 58.61262,25.955565 L 173.27042,73.117442 C 154.55708,52.492033 127.86734,40.672978 100.01947,40.672978 c -27.867636,0 -54.576538,11.857988 -73.289887,32.483397 z"
       inkscape:connector-curvature="0"
       style="fill:#ffffff" /></g></svg>