<?xml version="1.0" encoding="UTF-8" standalone="no"?>
<!-- Created with Inkscape (http://www.inkscape.org/) -->

<svg
   xmlns:dc="http://purl.org/dc/elements/1.1/"
   xmlns:cc="http://creativecommons.org/ns#"
   xmlns:rdf="http://www.w3.org/1999/02/22-rdf-syntax-ns#"
   xmlns:svg="http://www.w3.org/2000/svg"
   xmlns="http://www.w3.org/2000/svg"
   version="1.1"
   width="200"
   height="200"
   id="svg2">
  <defs
     id="defs4" />
  <metadata
     id="metadata7">
    <rdf:RDF>
      <cc:Work
         rdf:about="">
        <dc:format>image/svg+xml</dc:format>
        <dc:type
           rdf:resource="http://purl.org/dc/dcmitype/StillImage" />
        <dc:title></dc:title>
      </cc:Work>
    </rdf:RDF>
  </metadata>
  <path
     d="m 88.01531,199.29962 c -3.16547,-0.3408 -7.3741,-0.9666 -9.35252,-1.3904 -8.17729,-1.7519 -19.38088,-5.8994 -26.3789,-9.7651 C 40.5917,181.68522 30.28927,173.13652 22.39694,163.34472 15.28854,154.52552 10.4496,146.235 6.4702,136.0577 2.12091,124.9344 0.00178,113.04021 0.01007,99.79846 0.02047,83.09212 3.32102,69.02609 10.59009,54.7086 15.79404,44.45867 21.91541,36.18096 30.28605,28.07443 38.20893,20.40154 45.65844,15.11178 55.44028,10.21289 69.21714,3.31323 83.43674,0.04989 99.76885,0.03967 c 24.13924,-0.0151 44.76988,7.25293 63.54623,22.38687 9.7918,7.89233 18.34048,18.19476 24.79938,29.88696 3.87314,7.0114 8.03074,18.2492 9.75928,26.3789 1.04681,4.92345 2.10998,15.56319 2.12202,21.23666 0.0245,11.61022 -2.5424,25.80484 -6.48643,35.86684 -3.7259,9.5054 -9.24792,19.11602 -15.46441,26.91422 -3.75621,4.7121 -10.65238,11.6082 -15.36437,15.3644 -7.79827,6.2165 -17.40886,11.7385 -26.91428,15.4644 -6.83374,2.6787 -16.30985,4.9352 -24.20853,5.7646 -8.1717,0.8582 -15.54829,0.857 -23.54243,0 z m 12.94806,-53.51882 c 2.63558,-0.7317 5.74016,-3.9246 6.4806,-6.665 0.4425,-1.6377 0.45106,-2.7146 0.036,-4.5193 -0.29973,-1.3032 -1.09136,-3.0857 -1.7592,-3.9613 -2.74199,-3.5949 -8.21387,-4.7092 -12.23211,-2.4909 -4.53753,2.5049 -6.34875,8.3261 -4.01318,12.8982 1.42167,2.7831 5.28186,5.2047 8.372,5.2521 0.65948,0.01 2.06164,-0.2211 3.11593,-0.5138 z m 1.72471,-27.90075 c 2.8484,-1.48245 4.27207,-4.24686 4.27207,-8.2953 0,-1.80291 0.23401,-3.13504 0.59952,-3.41291 0.32974,-0.25066 1.67866,-0.84828 2.99761,-1.32803 4.50648,-1.63919 7.82554,-3.57847 10.73565,-6.27273 5.19184,-4.80673 7.4354,-10.22603 7.4354,-17.96022 0,-7.7387 -2.43076,-13.68639 -7.6364,-18.68511 -3.60479,-3.46149 -9.25785,-6.36407 -14.61139,-7.50225 -4.59259,-0.97641 -12.88012,-0.65739 -17.02638,0.65541 -7.76778,2.45944 -14.35242,7.33348 -16.89104,12.50296 -1.1218,2.28435 -1.81887,2.84404 -1.81887,6.06969 0,3.19178 0.67372,4.62578 1.60993,6.1316 0.61899,0.99561 1.77989,2.14862 2.57978,2.56226 1.91632,0.99097 5.03731,1.00359 6.92389,0.028 0.83367,-0.4311 3.40702,-2.72957 5.71856,-5.10771 2.31154,-2.37814 5.09673,-4.75662 6.18931,-5.28553 1.36146,-0.65908 2.96414,-0.96165 5.09369,-0.96165 2.65542,0 3.48316,0.22664 5.69289,1.55875 3.18394,1.91941 4.80594,4.66139 4.80594,8.12442 0,2.48774 -0.94787,5.28535 -2.29648,6.77798 -1.31825,1.45904 -4.94125,3.07906 -10.01035,4.47613 -3.67282,1.01224 -5.88283,1.5218 -7.09588,2.72247 0,0 -0.71906,0.93325 -0.74118,1.66399 -0.0547,1.80659 0,8.09981 0,8.09981 l 0,8.09981 c 0.16867,1.05548 0.62986,1.59411 1.00343,2.25915 0.37358,0.66503 4.05513,4.16058 7.67413,4.17123 1.87467,0.006 3.31885,-0.32337 4.79617,-1.09223 z"
     id="path2998"
     style="fill:#1d1d1b;fill-opacity:1" />
</svg>
