<?xml version="1.0" encoding="UTF-8" standalone="no"?>
<!-- Created with Inkscape (http://www.inkscape.org/) -->

<svg
   xmlns:dc="http://purl.org/dc/elements/1.1/"
   xmlns:cc="http://creativecommons.org/ns#"
   xmlns:rdf="http://www.w3.org/1999/02/22-rdf-syntax-ns#"
   xmlns:svg="http://www.w3.org/2000/svg"
   xmlns="http://www.w3.org/2000/svg"
   version="1.1"
   width="200"
   height="200"
   viewBox="0 0 200 200"
   id="Layer_1"
   xml:space="preserve"><metadata
     id="metadata17"><rdf:RDF><cc:Work
         rdf:about=""><dc:format>image/svg+xml</dc:format><dc:type
           rdf:resource="http://purl.org/dc/dcmitype/StillImage" /><dc:title></dc:title></cc:Work></rdf:RDF></metadata><defs
     id="defs15" /><path
     d="M 100,0 C 44.771525,0 0,44.771525 0,100 0,155.22847 44.771525,200 100,200 155.22847,200 200,155.22847 200,100 200,44.771525 155.22847,0 100,0 z m 0.21875,52.96875 c 0.041,-0.002 0.084,0 0.125,0 0.226,0 0.43025,0.02925 0.65625,0.03125 1.242,0.02 2.501,0.0695 3.75,0.1875 0.518,0.05 1.01625,0.1235 1.53125,0.1875 0.746,0.096 1.47275,0.15125 2.21875,0.28125 0.272,0.048 0.5405,0.1345 0.8125,0.1875 0.558,0.109 1.10525,0.246 1.65625,0.375 0.996,0.231 1.99475,0.458 2.96875,0.75 0.408,0.123 0.7865,0.27225 1.1875,0.40625 1.121,0.37 2.2285,0.76875 3.3125,1.21875 0.188,0.079 0.3755,0.167 0.5625,0.25 6.791,2.925 12.7925,7.3955 17.5625,13.1875 0.088,0.103 0.165,0.2075 0.25,0.3125 0.702,0.867 1.4155,1.73225 2.0625,2.65625 0.084,0.121 0.14575,0.248 0.21875,0.375 5.215,7.571 8.27725,16.72675 8.28125,26.59375 l 0,0.03125 9.40625,0 -15.0625,22.5625 -15.0625,-22.5625 9.4375,0 c -0.004,-8.588 -3.058,-16.48725 -8.125,-22.65625 -0.022,-0.028 -0.0405,-0.06575 -0.0625,-0.09375 -3.601,-4.357 -8.241,-7.82975 -13.5,-10.09375 -0.088,-0.039 -0.158,-0.088 -0.25,-0.125 -0.875,-0.367 -1.7795,-0.67075 -2.6875,-0.96875 -0.253,-0.083 -0.496,-0.20425 -0.75,-0.28125 -0.794,-0.241 -1.59025,-0.40775 -2.40625,-0.59375 -0.36,-0.083 -0.72575,-0.177 -1.09375,-0.25 -0.827,-0.162 -1.68225,-0.30125 -2.53125,-0.40625 -0.316,-0.038 -0.6215,-0.094 -0.9375,-0.125 -1.035,-0.099 -2.09825,-0.14825 -3.15625,-0.15625 -7.386,-0.067 -14.576,2.14575 -20.75,6.46875 -2.554,1.789 -6.091,1.14975 -7.875,-1.40625 -1.789,-2.554 -1.179,-6.05575 1.375,-7.84375 7.994,-5.599 17.322,-8.492 26.875,-8.5 z M 58.9375,77.40625 74,100 l -9.40625,0 c 0,8.42 2.9215,16.135 7.8125,22.25 0.142,0.176 0.2925,0.3895 0.4375,0.5625 0.676,0.816 1.381,1.59375 2.125,2.34375 0.041,0.04 0.084,0.085 0.125,0.125 2.399,2.395 5.13,4.45075 8.125,6.09375 0.04,0.022 0.086,0.0405 0.125,0.0625 0.884,0.478 1.79275,0.9085 2.71875,1.3125 0.178,0.081 0.35125,0.14475 0.53125,0.21875 0.79,0.33 1.6195,0.63425 2.4375,0.90625 0.338,0.114 0.658,0.2095 1,0.3125 0.707,0.213 1.43225,0.3935 2.15625,0.5625 0.451,0.107 0.88775,0.2245 1.34375,0.3125 0.744,0.143 1.52025,0.24475 2.28125,0.34375 0.395,0.052 0.76125,0.11925 1.15625,0.15625 0.964,0.088 1.9545,0.14525 2.9375,0.15625 7.439,0.103 14.7155,-2.0795 20.9375,-6.4375 2.546,-1.79 6.05575,-1.181 7.84375,1.375 1.789,2.554 1.179,6.05375 -1.375,7.84375 -8.004,5.608 -17.34225,8.53125 -26.90625,8.53125 -1.559,0 -3.1205,-0.096 -4.6875,-0.25 -0.318,-0.033 -0.6215,-0.089 -0.9375,-0.125 -0.873,-0.106 -1.752,-0.18975 -2.625,-0.34375 -0.257,-0.044 -0.493,-0.10425 -0.75,-0.15625 -0.624,-0.121 -1.22775,-0.2945 -1.84375,-0.4375 -0.922,-0.217 -1.849,-0.4195 -2.75,-0.6875 -0.492,-0.147 -0.98375,-0.335 -1.46875,-0.5 -1.029,-0.342 -2.03525,-0.714 -3.03125,-1.125 -0.292,-0.125 -0.586,-0.25 -0.875,-0.375 -1.165,-0.511 -2.29125,-1.05725 -3.40625,-1.65625 -0.107,-0.055 -0.2075,-0.1285 -0.3125,-0.1875 -3.868,-2.12 -7.4165,-4.75625 -10.5625,-7.90625 -0.09,-0.088 -0.19325,-0.18925 -0.28125,-0.28125 -0.937,-0.956 -1.8275,-1.92875 -2.6875,-2.96875 -0.226,-0.272 -0.43725,-0.56875 -0.65625,-0.84375 -0.582,-0.735 -1.17675,-1.44275 -1.71875,-2.21875 -0.072,-0.102 -0.1215,-0.2065 -0.1875,-0.3125 -5.24,-7.585 -8.34375,-16.7905 -8.34375,-26.6875 l -9.40625,0 15.0625,-22.5625 z"
     id="circle5"
     style="fill:#1d1d1b" /><path
     d="m -0.8728795,-0.872878 0,201.745758 201.7457595,0 0,-201.745758 -201.7457595,0 z M 100,10.058042 c 49.43143,0 89.50352,40.269408 89.50352,89.941956 0,49.672552 -40.07209,89.926842 -89.50352,89.926842 -49.43143,0 -89.503519,-40.25429 -89.503519,-89.926842 C 10.496481,50.32745 50.56857,10.058042 100,10.058042 z"
     id="rect3000"
     style="opacity:0.8;fill:#1d1d1b;fill-opacity:1;stroke:none" /></svg>