<?xml version="1.0" encoding="UTF-8" standalone="no"?>
<!-- Created with Inkscape (http://www.inkscape.org/) -->

<svg
   xmlns:dc="http://purl.org/dc/elements/1.1/"
   xmlns:cc="http://creativecommons.org/ns#"
   xmlns:rdf="http://www.w3.org/1999/02/22-rdf-syntax-ns#"
   xmlns:svg="http://www.w3.org/2000/svg"
   xmlns="http://www.w3.org/2000/svg"
   version="1.1"
   width="200"
   height="200"
   viewBox="0 0 200 200"
   id="Layer_1"
   xml:space="preserve"><metadata
     id="metadata17"><rdf:RDF><cc:Work
         rdf:about=""><dc:format>image/svg+xml</dc:format><dc:type
           rdf:resource="http://purl.org/dc/dcmitype/StillImage" /><dc:title></dc:title></cc:Work></rdf:RDF></metadata><defs
     id="defs15" /><path
     d="m 99.71875,-0.625 c -55.228475,0 -100,44.771525 -100,100 0,55.22847 44.771525,100 100,100 55.22848,0 100,-44.77153 100,-100 0,-55.228475 -44.77152,-100 -100,-100 z m 0.21875,51.3125 c 9.47988,0.04212 18.924,3.70325 26.125,10.96875 14.402,14.531 14.31225,37.973 -0.21875,52.375 -5.147,5.102 -11.414,8.3435 -18,9.8125 l -0.125,27.9375 c -0.021,4.547 -3.73425,8.2085 -8.28125,8.1875 -2.274,-0.01 -4.3295,-0.91025 -5.8125,-2.40625 -1.482,-1.495 -2.385,-3.56975 -2.375,-5.84375 l 0.125,-27.9375 c -6.572,-1.527 -12.8385,-4.82475 -17.9375,-9.96875 -14.402,-14.531 -14.281,-38.00425 0.25,-52.40625 7.2655,-7.201 16.770125,-10.760875 26.25,-10.71875 z M 99.875,63.03125 c -6.323625,-0.028 -12.664,2.36325 -17.5,7.15625 -9.672,9.586 -9.74325,25.2655 -0.15625,34.9375 9.586,9.672 25.2655,9.74325 34.9375,0.15625 9.672,-9.587 9.74225,-25.2655 0.15625,-34.9375 -4.7935,-4.836 -11.11387,-7.2845 -17.4375,-7.3125 z M 99.84375,71.25 c 2.275,0.01 4.10375,1.88125 4.09375,4.15625 l -0.0312,8.21875 8.21875,0.03125 c 2.272,0.01 4.10375,1.88125 4.09375,4.15625 -0.01,2.275 -1.854,4.10375 -4.125,4.09375 l -8.25,-0.03125 -0.0312,8.21875 c -0.01,2.272 -1.851,4.10475 -4.125,4.09375 -2.275,-0.01 -4.10375,-1.854 -4.09375,-4.125 l 0.03125,-8.25 -8.21875,-0.03125 c -2.271,-0.01 -4.135,-1.85 -4.125,-4.125 0.01,-2.275 1.88525,-4.10375 4.15625,-4.09375 l 8.21875,0.03125 0.03125,-8.21875 c 0.01,-2.275 1.88125,-4.135 4.15625,-4.125 z"
     id="circle3"
     style="fill:#1d1d1b" /><path
     d="m -1.15413,-1.4978825 0,201.7457625 201.74576,0 0,-201.7457625 -201.74576,0 z M 99.71875,9.4330379 c 49.43143,0 89.50352,40.2694111 89.50352,89.9419601 0,49.672552 -40.07209,89.926842 -89.50352,89.926842 -49.43143,0 -89.50352,-40.25429 -89.50352,-89.926842 0,-49.672548 40.07209,-89.9419601 89.50352,-89.9419601 z"
     id="rect3000"
     style="opacity:0.8;fill:#1d1d1b;fill-opacity:1;stroke:none" /></svg>