<?xml version="1.0" encoding="UTF-8" standalone="no"?>
<!-- Created with Inkscape (http://www.inkscape.org/) -->

<svg
   xmlns:dc="http://purl.org/dc/elements/1.1/"
   xmlns:cc="http://creativecommons.org/ns#"
   xmlns:rdf="http://www.w3.org/1999/02/22-rdf-syntax-ns#"
   xmlns:svg="http://www.w3.org/2000/svg"
   xmlns="http://www.w3.org/2000/svg"
   version="1.1"
   width="200"
   height="200"
   viewBox="0 0 200 200"
   id="Layer_1"
   xml:space="preserve"><metadata
     id="metadata17"><rdf:RDF><cc:Work
         rdf:about=""><dc:format>image/svg+xml</dc:format><dc:type
           rdf:resource="http://purl.org/dc/dcmitype/StillImage" /><dc:title></dc:title></cc:Work></rdf:RDF></metadata><defs
     id="defs15" /><path
     d="M 100,0 C 44.771525,0 0,44.771525 0,100 0,155.22847 44.771525,200 100,200 155.22847,200 200,155.22847 200,100 200,44.771525 155.22847,0 100,0 z m 0.21875,51.3125 c 9.47987,0.04413 18.95675,3.70175 26.15625,10.96875 14.399,14.534 14.284,38.00725 -0.25,52.40625 -5.148,5.1 -11.411,8.31725 -18,9.78125 L 108,152.4375 c -0.021,4.548 -3.73225,8.2095 -8.28125,8.1875 -2.273,-0.01 -4.3305,-0.9415 -5.8125,-2.4375 -1.482,-1.496 -2.386,-3.56975 -2.375,-5.84375 l 0.125,-27.9375 C 85.08625,122.88025 78.85,119.5855 73.75,114.4375 59.351,99.9035 59.43475,76.43025 73.96875,62.03125 c 7.267,-7.1995 16.770125,-10.762875 26.25,-10.71875 z m 0,12.34375 c -0.420012,-0.0032 -0.830362,0.01322 -1.25,0.03125 -5.924307,0.254469 -11.746562,2.6325 -16.28125,7.125 -9.674,9.584 -9.7715,25.2635 -0.1875,34.9375 9.584,9.674 25.2635,9.74025 34.9375,0.15625 9.674,-9.584 9.74025,-25.2635 0.15625,-34.9375 -4.77328,-4.818106 -11.07483,-7.264307 -17.375,-7.3125 z m 12.15625,20.5 c 2.276,-0.015 4.111,1.81975 4.125,4.09375 0.014,2.275 -1.7885,4.14225 -4.0625,4.15625 L 87.71875,92.5625 c -2.275,0.014 -4.111,-1.81975 -4.125,-4.09375 -0.014,-2.275 1.81975,-4.14225 4.09375,-4.15625 l 24.6875,-0.15625 z"
     id="circle5"
     style="fill:#1d1d1b" /><path
     d="M 0,0 0,200 200,200 200,0 0,0 z m 100,10.836332 c 49.00369,0 88.72902,39.920948 88.72902,89.163668 0,49.24272 -39.72533,89.14868 -88.72902,89.14868 -49.003687,0 -88.729022,-39.90596 -88.729022,-89.14868 0,-49.24272 39.725335,-89.163668 88.729022,-89.163668 z"
     id="rect3000"
     style="opacity:0.8;fill:#1d1d1b;fill-opacity:1;stroke:none" /></svg>